<?xml version="1.0" encoding="iso-8859-1"?>
<!-- Generator: Adobe Illustrator 18.0.0, SVG Export Plug-In . SVG Version: 6.00 Build 0)  -->
<!DOCTYPE svg PUBLIC "-//W3C//DTD SVG 1.1//EN" "http://www.w3.org/Graphics/SVG/1.1/DTD/svg11.dtd">
<svg version="1.1" id="Capa_1" xmlns="http://www.w3.org/2000/svg" xmlns:xlink="http://www.w3.org/1999/xlink" x="0px" y="0px"
	 viewBox="0 0 476.786 476.786" style="enable-background:new 0 0 476.786 476.786;" xml:space="preserve">
<path d="M466.286,411.475H402.78V144.05l24.814-24.559l0.001,38.177c0,5.799,4.701,10.5,10.5,10.5c5.799,0,10.5-4.701,10.5-10.5
	l-0.001-64.611c0-5.799-4.701-10.5-10.5-10.5h-64.608c-5.799,0-10.5,4.701-10.5,10.5c0,5.799,4.701,10.5,10.5,10.5h40.356
	l-156.589,154.98l-74.255-74.79c-1.971-1.986-4.653-3.103-7.451-3.103c-0.001,0-0.002,0-0.003,0
	c-2.799,0.001-5.481,1.119-7.452,3.107L26.539,326.479c-4.083,4.117-4.056,10.766,0.061,14.849c2.048,2.031,4.721,3.045,7.394,3.045
	c2.701,0,5.402-1.036,7.455-3.106l12.587-12.692v82.901H21V54.812c0-5.799-4.701-10.5-10.5-10.5c-5.799,0-10.5,4.701-10.5,10.5
	v367.163c0,5.799,4.701,10.5,10.5,10.5h455.786c5.799,0,10.5-4.701,10.5-10.5S472.085,411.475,466.286,411.475z M381.78,411.475
	H267.689V277.754L381.78,164.835V411.475z M186.046,216.622l60.642,61.078v133.774h-60.642V216.622z M75.036,307.399l90.01-90.758
	v194.833h-90.01V307.399z"/>
<g>
</g>
<g>
</g>
<g>
</g>
<g>
</g>
<g>
</g>
<g>
</g>
<g>
</g>
<g>
</g>
<g>
</g>
<g>
</g>
<g>
</g>
<g>
</g>
<g>
</g>
<g>
</g>
<g>
</g>
</svg>
